<svg width="192" height="192" viewBox="0 0 192 192" fill="none" xmlns="http://www.w3.org/2000/svg">
<path d="M104 64C104 41.92 84.32 24 60 24C35.68 24 16 41.92 16 64H32L40 56L48 64H80" stroke="#6BA53E" stroke-width="2" stroke-linecap="round" stroke-linejoin="round"/>
<path d="M104 57.12C112.101 51.1308 121.926 47.9307 132 48C156.32 48 176 65.92 176 88H152L144 80L136 88H112" stroke="#6BA53E" stroke-width="2" stroke-linecap="round" stroke-linejoin="round"/>
<path d="M47.12 77.68C29.92 94.88 28.72 121.44 44.32 137.12L78.24 103.12L83.84 97.52L89.52 91.84L106.48 74.88C90.88 59.2 64.32 60.48 47.12 77.68Z" stroke="#6BA53E" stroke-width="2" stroke-linecap="round" stroke-linejoin="round"/>
<path d="M88 124C92 144 86.64 160 80 176H112C128 132 108 80 104 64" stroke="#75471E" stroke-width="2" stroke-linecap="round" stroke-linejoin="round"/>
</svg>
